# xmcd
#
# Track frame offsets: 
#        150
#        16097
#        36510
#        47012
#
# Disc length: 914 seconds
#
# Revision: 0
# Processed by: cddbd v1.5.2PL0 Copyright (c) Steve Scherf et al.
# Submitted via: ExactAudioCopy v0.99pb5
#
DISCID=29039004
DTITLE=Stella One Eleven - Jump (and the eclectic acoustic covers coll
DTITLE=ection)
DYEAR=2001
DGENRE=Indie
TTITLE0=Jump
TTITLE1=Sugar Man
TTITLE2=Push It
TTITLE3=Lock It
EXTD=
EXTT0=
EXTT1=
EXTT2=
EXTT3=
PLAYORDER=
